<svg width="800" height="800" viewBox="0 0 800 800" fill="none" xmlns="http://www.w3.org/2000/svg">
<rect width="800" height="800" fill="none"/>
<path d="M120 400.059C119.978 349.946 133.413 300.746 158.9 257.595C184.387 214.443 220.993 178.924 264.897 154.743C308.8 130.563 358.391 118.609 408.492 120.129C458.593 121.649 507.367 136.587 549.724 163.384L585.64 127.501C589.204 123.938 593.747 121.513 598.691 120.534C603.635 119.555 608.758 120.066 613.412 122.001C618.066 123.936 622.04 127.209 624.831 131.405C627.622 135.601 629.105 140.53 629.091 145.569V247.365C629.091 254.115 626.409 260.588 621.635 265.36C616.862 270.133 610.387 272.814 603.636 272.814H501.818C496.785 272.813 491.864 271.32 487.679 268.524C483.494 265.727 480.233 261.753 478.306 257.104C476.38 252.454 475.876 247.338 476.858 242.402C477.84 237.466 480.263 232.932 483.822 229.373L512.535 200.666C477.693 180.969 438.295 170.749 398.27 171.025C358.245 171.3 318.992 182.062 284.425 202.238C249.858 222.413 221.186 251.296 201.268 286.007C181.35 320.717 170.883 360.042 170.909 400.059C170.909 406.809 168.227 413.282 163.454 418.054C158.68 422.827 152.206 425.508 145.455 425.508C138.704 425.508 132.229 422.827 127.455 418.054C122.682 413.282 120 406.809 120 400.059ZM654.545 374.61C647.795 374.61 641.32 377.292 636.546 382.064C631.773 386.837 629.091 393.31 629.091 400.059C629.024 460.784 604.866 519.002 561.917 561.941C518.969 604.88 460.738 629.033 400 629.1C360.553 629.171 321.77 618.942 287.491 599.427L316.178 570.746C319.737 567.187 322.16 562.653 323.142 557.717C324.124 552.781 323.62 547.665 321.694 543.015C319.767 538.366 316.506 534.391 312.321 531.595C308.136 528.798 303.215 527.305 298.182 527.304H196.364C189.613 527.304 183.138 529.985 178.365 534.758C173.591 539.531 170.909 546.004 170.909 552.753V654.549C170.908 659.582 172.399 664.502 175.195 668.688C177.99 672.874 181.964 676.136 186.615 678.064C189.703 679.351 193.018 680.009 196.364 679.998C203.114 679.997 209.587 677.315 214.36 672.542L250.276 636.735C295.019 665.173 346.981 680.188 400 679.998C474.234 679.911 545.402 650.389 597.893 597.909C650.384 545.43 679.912 474.277 680 400.059C680 393.31 677.318 386.837 672.545 382.064C667.771 377.292 661.296 374.61 654.545 374.61Z" fill="white"/>
</svg>
